<?xml version="1.0" encoding="utf-8"?>
<!-- Generator: Adobe Illustrator 27.0.0, SVG Export Plug-In . SVG Version: 6.00 Build 0)  -->
<svg version="1.1" id="Layer_1" xmlns="http://www.w3.org/2000/svg" xmlns:xlink="http://www.w3.org/1999/xlink" x="0px" y="0px"
	 viewBox="0 0 400 400" style="enable-background:new 0 0 400 400;" xml:space="preserve">
<style type="text/css">
	.st0{fill:#FFCE10;}
</style>
<g>
	<g>
		<path class="st0" d="M265.23,333.74c-59.2,0-118.39,0-177.59,0c-0.48-0.18-0.95-0.4-1.44-0.54c-7.22-2.09-11.84-8.37-11.6-15.76
			c0.24-7.25,5.47-13.28,12.83-14.76c0.9-0.18,1.81-0.31,2.95-0.5c0-57.6,0-115.06,0-172.64c5.39,0,10.52,0,15.65,0
			c5.11,0,10.22,0,15.72,0c-0.75,9.13-0.16,17.76,6.77,24.42c6.91,6.64,15.1,8.38,24.43,5.61c0,8.69-0.12,17.03,0.03,25.38
			c0.22,12.68,10.74,22.89,23.4,22.92c12.9,0.03,23.44-10.28,23.53-23.32c0.12-17.4,0.03-34.81,0.04-52.21c0-0.91,0-1.82,0-2.66
			c21.11,0,41.79,0,62.7,0c0,57.63,0,115.1,0,172.54c1.26,0.22,2.29,0.36,3.3,0.58c6.39,1.41,10.98,6.26,12.15,12.81
			c1.06,5.95-1.81,12.42-7.16,15.67C269.18,332.36,267.14,332.94,265.23,333.74z"/>
		<path d="M265.91,337.12H87.02l-1.08-0.42c-0.22-0.09-0.45-0.19-0.68-0.25c-8.69-2.52-14.33-10.2-14.04-19.11
			c0.29-8.79,6.67-16.18,15.54-17.96c0.08-0.02,0.16-0.03,0.24-0.05V126.17h38.41l-0.3,3.65c-0.74,9.01-0.05,16.15,5.74,21.71
			c5.93,5.7,12.84,7.26,21.12,4.81l4.34-1.29v4.53c0,2.72-0.01,5.42-0.02,8.08c-0.03,5.82-0.05,11.53,0.05,17.24
			c0.18,10.79,9.17,19.58,20.03,19.6c0.01,0,0.03,0,0.04,0c11.01,0,20.02-8.95,20.1-19.96c0.09-12.15,0.07-24.31,0.05-36.46
			l-0.01-21.76h69.46v173.07c0.22,0.04,0.44,0.09,0.65,0.14c7.69,1.7,13.34,7.64,14.74,15.52c1.32,7.36-2.28,15.24-8.74,19.15
			c-1.47,0.89-2.98,1.46-4.45,2.02c-0.57,0.21-1.13,0.43-1.69,0.66L265.91,337.12z M88.28,330.37h176.29
			c0.42-0.17,0.85-0.33,1.28-0.49c1.23-0.46,2.39-0.9,3.33-1.47c4.13-2.5,6.42-7.51,5.59-12.18c-0.93-5.22-4.5-8.99-9.55-10.11
			c-0.63-0.14-1.26-0.24-1.96-0.36l-3.99-0.69v-172h-55.95l0.01,14.99c0.02,12.17,0.04,24.35-0.05,36.52
			c-0.11,14.72-12.15,26.67-26.85,26.67c-0.02,0-0.04,0-0.06,0c-14.51-0.03-26.52-11.8-26.77-26.24c-0.1-5.75-0.08-11.51-0.05-17.38
			c0.01-1.26,0.01-2.53,0.02-3.81c-8.88,1.46-16.73-1.02-23.39-7.42c-7.09-6.82-8.3-15.44-8.01-23.48h-24.4v172.12l-3.88,0.64
			c-0.64,0.11-1.21,0.19-1.78,0.31c-5.77,1.16-9.93,5.91-10.12,11.56c-0.19,5.87,3.41,10.74,9.16,12.4
			C87.52,330.07,87.91,330.21,88.28,330.37z"/>
	</g>
	<g>
		<path class="st0" d="M90.68,113.88c0-9.67-1.01-19.09,0.22-28.22c2.28-17.03,22.52-24.93,36.43-14.79
			c1.62,1.18,2.56,1.2,4.17,0.01c8.23-6.08,19-6.06,27.23,0.01c1.46,1.08,2.34,1.33,3.96,0.11c8.41-6.29,19.19-6.23,27.64,0.08
			c1.36,1.01,2.15,1.04,3.53,0.02c8.59-6.38,19.29-6.38,27.86,0.02c1.41,1.05,2.19,0.9,3.53-0.06c7.66-5.49,15.9-6.4,24.34-2.15
			c8.42,4.23,12.75,11.37,12.98,20.76c0.2,7.98,0.04,15.96,0.04,24.19c-1.26,0-2.28,0-3.3,0c-21.93,0-43.86,0-65.79,0
			c-6.28,0-9.25,2.98-9.25,9.27c0,20.19,0.02,40.37-0.01,60.56c-0.01,6.61-6.24,10.57-11.65,7.44c-2.91-1.69-4.03-4.33-4.03-7.65
			c0.03-20.01,0.02-40.02,0.01-60.04c0-1.13,0.04-2.28-0.2-3.37c-0.85-3.89-4.37-6.49-8.21-6.19c-3.95,0.31-7.12,3.52-7.22,7.6
			c-0.11,4.96-0.02,9.92-0.04,14.88c-0.02,5.28-3.22,8.85-7.87,8.83c-4.64-0.02-7.78-3.59-7.8-8.89c-0.01-4.7,0.03-9.4-0.01-14.1
			c-0.05-5.07-3.28-8.31-8.35-8.32c-11.83-0.03-23.67-0.01-35.5-0.01C92.45,113.88,91.51,113.88,90.68,113.88z"/>
		<path d="M176.54,195.61c-1.91,0-3.85-0.51-5.62-1.54c-3.8-2.2-5.72-5.76-5.71-10.58c0.03-20.01,0.02-40.02,0.01-60.03v-0.41
			c0-0.85,0.01-1.65-0.12-2.24c-0.48-2.19-2.49-3.71-4.65-3.55c-2.29,0.18-4.05,2.03-4.1,4.31c-0.07,3.17-0.06,6.35-0.05,9.52
			c0.01,1.77,0.01,3.53,0.01,5.3c-0.01,3.64-1.25,6.88-3.5,9.11c-2.02,2-4.7,2.95-7.76,3.09c-6.55-0.03-11.14-5.07-11.16-12.26
			l0-5.59c0-2.83,0.01-5.66-0.02-8.49c-0.03-3.25-1.75-4.97-4.99-4.98c-8.38-0.02-16.76-0.02-25.14-0.01l-16.44,0v-3.38
			c0-2.99-0.1-5.97-0.19-8.91c-0.21-6.5-0.44-13.21,0.44-19.76c1.2-8.94,6.95-16.43,15.37-20.03c8.81-3.77,18.68-2.66,26.4,2.96
			c0.04,0.03,0.08,0.05,0.11,0.08c0.02-0.02,0.04-0.03,0.07-0.05c9.47-7,21.74-6.99,31.23,0.01c0.02,0.01,0.04,0.03,0.06,0.04
			c9.48-7.02,21.73-7.02,31.32-0.01c9.71-7.06,21.66-7.05,31.33,0c8.75-6.21,18.31-7.01,27.66-2.31
			c9.45,4.75,14.58,12.95,14.84,23.7c0.14,5.58,0.11,11.01,0.07,16.77c-0.02,2.48-0.03,4.98-0.03,7.5v3.38l-72.47,0
			c-4.39,0-5.87,1.49-5.87,5.89v21.8c0,12.92,0.01,25.84-0.01,38.76c-0.01,4.48-2.17,8.4-5.79,10.48
			C180.2,195.14,178.37,195.61,176.54,195.61z M160.77,110.5c5.18,0,9.78,3.69,10.92,8.87c0.29,1.32,0.29,2.59,0.28,3.71v0.38
			c0.01,20.01,0.03,40.03-0.01,60.04c-0.01,2.96,1.12,4.02,2.34,4.72c1.41,0.81,2.9,0.85,4.18,0.11c1.5-0.86,2.4-2.6,2.4-4.63
			c0.02-12.91,0.02-25.83,0.01-38.75v-21.8c0-8.15,4.49-12.65,12.63-12.65l65.72,0c0.01-1.4,0.01-2.78,0.02-4.17
			c0.03-5.7,0.06-11.09-0.07-16.57c-0.2-8.22-3.94-14.22-11.12-17.83c-7.22-3.63-14.04-3.01-20.86,1.88
			c-1.65,1.18-4.22,2.48-7.52,0.02c-7.32-5.48-16.45-5.48-23.82-0.01c-2.58,1.91-4.98,1.9-7.56-0.03
			c-7.32-5.46-16.36-5.49-23.6-0.08c-3.45,2.59-6.08,1.3-7.98-0.1c-7.06-5.2-16.17-5.2-23.22-0.01c-2.8,2.07-5.31,2.07-8.16,0
			c-5.78-4.21-13.16-5.03-19.77-2.21c-6.31,2.7-10.44,8.06-11.33,14.72c-0.8,5.99-0.6,12.13-0.39,18.63
			c0.06,1.91,0.13,3.83,0.16,5.76l9.72,0c8.38-0.01,16.78-0.01,25.16,0.01c6.95,0.02,11.66,4.71,11.72,11.67
			c0.03,2.85,0.02,5.71,0.02,8.56l0,5.56c0,1.29,0.33,5.51,4.44,5.53c1.31,0.02,2.21-0.37,2.97-1.12c0.96-0.96,1.5-2.5,1.5-4.34
			c0.01-1.75,0-3.5-0.01-5.25c-0.01-3.23-0.03-6.47,0.05-9.7c0.13-5.76,4.57-10.44,10.33-10.89
			C160.21,110.51,160.49,110.5,160.77,110.5z M129.07,68.45L129.07,68.45L129.07,68.45z"/>
	</g>
	<g>
		<path class="st0" d="M278.3,271.07c2.57,0,4.9,0.02,7.22,0c5.1-0.06,8.42-3.24,8.42-8.27c0.03-31.25,0.03-62.49,0-93.74
			c0-4.89-3.32-8.1-8.25-8.18c-2.34-0.03-4.69-0.01-7.22-0.01c0-10.43,0-20.72,0-31.02c27.73-3.68,46.51,16.26,46.72,37.7
			c0.32,32.29,0.22,64.58,0.03,96.87c-0.11,18.61-15.07,35-33.47,37.42c-1.57,0.21-2.39-0.32-3.45-1.5
			c-2.64-2.96-5.62-5.63-8.45-8.43c-0.57-0.57-1.48-1.23-1.49-1.87C278.25,283.81,278.3,277.56,278.3,271.07z"/>
		<path d="M291.13,305.27c-2.58,0-4.14-1.33-5.34-2.67c-1.71-1.92-3.56-3.7-5.52-5.58c-0.94-0.9-1.87-1.8-2.79-2.71l-0.3-0.28
			c-0.8-0.74-2.15-1.97-2.19-3.91c-0.09-4.91-0.08-9.81-0.07-14.83l0-7.59l5.69,0c1.67,0,3.27,0.01,4.88-0.01
			c1.9-0.02,5.08-0.68,5.09-4.89c0.03-31.24,0.03-62.49,0-93.73c0-3.01-1.8-4.76-4.92-4.8c-1.59-0.03-3.18-0.02-4.82-0.01l-5.73,0
			l0-37.36l2.93-0.39c13.74-1.83,26.56,1.75,36.13,10.05c9.04,7.84,14.29,19.13,14.41,30.97c0.33,33.98,0.2,68.07,0.03,96.93
			c-0.12,20.18-16.11,38.07-36.41,40.75C291.82,305.25,291.47,305.27,291.13,305.27z M281.73,289.03c0.01,0.01,0.01,0.01,0.02,0.02
			l0.5,0.47c0.89,0.88,1.8,1.76,2.7,2.63c1.97,1.89,4,3.84,5.88,5.95c0.34,0.38,0.47,0.47,0.49,0.49
			c17.01-2.33,30.43-17.3,30.53-34.18c0.17-28.83,0.31-62.88-0.03-96.82c-0.1-9.9-4.5-19.36-12.08-25.93
			c-7.41-6.43-17.2-9.49-27.88-8.75l0,24.58c1.32-0.01,2.6,0,3.89,0.01c6.81,0.1,11.57,4.85,11.58,11.55
			c0.03,31.25,0.03,62.5,0,93.75c0,6.88-4.73,11.56-11.76,11.64c-1.28,0.01-2.58,0.01-3.89,0.01v0.83
			C281.66,279.94,281.66,284.49,281.73,289.03z M281.32,288.65L281.32,288.65L281.32,288.65z"/>
	</g>
</g>
</svg>
