<?xml version="1.0" encoding="utf-8"?>
<!-- Generator: Adobe Illustrator 27.0.0, SVG Export Plug-In . SVG Version: 6.00 Build 0)  -->
<svg version="1.1" id="Layer_1" xmlns="http://www.w3.org/2000/svg" xmlns:xlink="http://www.w3.org/1999/xlink" x="0px" y="0px"
	 viewBox="0 0 400 400" style="enable-background:new 0 0 400 400;" xml:space="preserve">
<style type="text/css">
	.st0{fill:#FFCE10;}
</style>
<g>
	<g>
		<path class="st0" d="M349.76,255.52c-1.76,3.19-3.05,6.79-5.38,9.49c-3.57,4.14-8.68,5.16-14.08,5.16
			c-64.44-0.04-128.88-0.03-193.32-0.03c-21.55,0-43.09,0-64.64,0c-13.27,0-17.23-2.62-22.09-14.63c0-1.95,0-3.9,0-5.85
			c1.76-3.19,3.05-6.79,5.38-9.49c3.57-4.14,8.68-5.16,14.08-5.16c64.44,0.04,128.88,0.03,193.32,0.03c21.55,0,43.09,0,64.64,0
			c13.27,0,17.23,2.62,22.09,14.63C349.76,251.62,349.76,253.57,349.76,255.52z"/>
		<path d="M330.33,274.2c-0.01,0-0.03,0-0.04,0c-50.12-0.03-100.24-0.04-150.36-0.02H72.34c-14.83,0-20.38-3.69-25.83-17.14
			l-0.3-0.73v-7.67l0.5-0.91c0.51-0.93,0.98-1.9,1.45-2.86c1.21-2.49,2.46-5.05,4.41-7.32c5.06-5.87,12.17-6.55,17.09-6.55
			c0.01,0,0.03,0,0.04,0c50.12,0.04,100.24,0.04,150.36,0.02h107.6c14.82,0,20.38,3.69,25.83,17.14l0.3,0.73v7.67l-0.5,0.91
			c-0.51,0.93-0.98,1.9-1.45,2.87c-1.21,2.48-2.46,5.05-4.41,7.31C342.36,273.51,335.25,274.2,330.33,274.2z M222.9,266.12
			c35.8,0,71.59,0,107.39,0.03c0.01,0,0.02,0,0.03,0c5.36,0,8.75-1.16,11-3.76c1.27-1.47,2.24-3.47,3.27-5.58
			c0.37-0.77,0.75-1.53,1.14-2.29v-4.06c-4.09-9.88-6.64-11.39-18.07-11.39h-107.6c-50.12,0.02-100.25,0.01-150.36-0.02
			c-0.01,0-0.02,0-0.03,0c-5.36,0-8.75,1.16-11,3.76c-1.27,1.47-2.24,3.47-3.27,5.59c-0.37,0.76-0.75,1.53-1.14,2.28v4.06
			c4.09,9.88,6.64,11.39,18.07,11.39h107.6C194.25,266.12,208.58,266.12,222.9,266.12z"/>
	</g>
	<g>
		<path class="st0" d="M50.24,197.01c0.54-1.44,0.97-2.94,1.64-4.32c3.12-6.45,8.34-9.98,15.45-10.23c7.39-0.25,14.8-0.11,22.2-0.04
			c0.85,0.01,1.92,0.44,2.52,1.04c10.72,10.63,21.38,21.31,32.05,31.98c0.48,0.48,0.93,0.99,1.91,2.04c-1.42,0-2.3,0-3.19,0
			c-17.82,0-35.63,0.01-53.45,0c-9.93-0.01-15.7-4.32-18.69-13.89c-0.08-0.26-0.29-0.49-0.44-0.73
			C50.24,200.92,50.24,198.97,50.24,197.01z"/>
		<path d="M90.76,221.52c-7.13,0-14.26,0-21.39-0.01c-11.5-0.01-18.83-5.34-22.4-16.29l-0.76-1.21v-7.73l0.71-1.96
			c0.4-1.15,0.81-2.29,1.33-3.38c3.81-7.88,10.36-12.2,18.94-12.5c6.29-0.22,12.65-0.15,18.8-0.08l3.57,0.04
			c1.94,0.02,3.97,0.87,5.32,2.2c9.38,9.3,18.72,18.64,28.06,27.99l4,4c0.33,0.33,0.65,0.67,1.09,1.16l7.26,7.76l-28.51,0
			C101.45,221.52,96.1,221.52,90.76,221.52z M54.27,201.73c0.09,0.2,0.18,0.42,0.26,0.66c2.49,7.96,6.65,11.06,14.85,11.07
			c12.47,0.02,24.94,0.01,37.41,0.01l9.63,0c-9.05-9.06-18.11-18.11-27.2-27.13l-3.31,0.09c-6.06-0.07-12.33-0.14-18.44,0.07
			c-5.55,0.19-9.46,2.79-11.96,7.95c-0.39,0.81-0.68,1.66-0.98,2.52l-0.27,0.74V201.73z M47.16,205.49
			C47.16,205.5,47.17,205.5,47.16,205.49L47.16,205.49z"/>
	</g>
	<g>
		<path class="st0" d="M349.76,202.87c-0.54,1.44-0.97,2.94-1.64,4.32c-3.12,6.45-8.35,10.14-15.45,10.21
			c-19.18,0.2-38.36,0.07-57.54,0.06c-0.16,0-0.32-0.14-0.73-0.33c0.6-0.67,1.13-1.3,1.71-1.88c10.32-10.33,20.67-20.64,30.94-31.02
			c1.35-1.36,2.69-1.91,4.59-1.88c6.33,0.1,12.66,0.03,18.98,0.04c9.93,0.02,15.7,4.33,18.69,13.89c0.08,0.26,0.29,0.49,0.44,0.73
			C349.76,198.96,349.76,200.92,349.76,202.87z"/>
		<path d="M307.91,221.53c-5.76,0-11.52-0.01-17.28-0.02l-16.52-0.02l-6.19-2.94l4-4.7c0.45-0.5,0.87-0.98,1.33-1.44l8.63-8.63
			c7.45-7.45,14.9-14.89,22.31-22.38c2.13-2.15,4.57-3.12,7.52-3.07c4.14,0.07,8.29,0.06,12.44,0.05l6.49-0.01
			c11.5,0.03,18.83,5.36,22.39,16.3l0.76,1.21v7.73l-0.71,1.95c-0.4,1.15-0.81,2.3-1.34,3.39c-3.85,7.96-10.61,12.4-19.03,12.49
			C324.44,221.51,316.18,221.53,307.91,221.53z M283.61,213.44l7.04,0.01c14,0.03,27.99,0.06,41.98-0.09
			c5.35-0.06,9.34-2.73,11.86-7.94c0.39-0.81,0.68-1.67,0.98-2.52l0.26-0.74v-4.02c-0.09-0.2-0.18-0.42-0.26-0.66
			c-2.48-7.95-6.65-11.05-14.86-11.07l-6.45,0.01c-4.19,0.01-8.39,0.02-12.59-0.05c-0.79-0.07-1.09,0.11-1.66,0.68
			c-7.42,7.5-14.88,14.95-22.34,22.41L283.61,213.44z M352.83,194.38L352.83,194.38C352.84,194.39,352.83,194.38,352.83,194.38z"/>
	</g>
	<g>
		<path class="st0" d="M331.97,164.68c-88.24,0-175.83,0-264.21,0c1.57-7.99,2.49-15.86,4.7-23.35
			c10.44-35.4,34.24-58.34,68.12-71.4c25.23-9.73,51.44-11.89,78.19-9.37c18.5,1.75,36.26,6.22,52.85,14.68
			c30.26,15.44,50.12,39.25,57.61,72.74C330.41,153.39,331.03,158.92,331.97,164.68z M173.73,94.65c-4.77-0.03-8.78,3.93-8.81,8.7
			c-0.03,4.77,3.93,8.78,8.7,8.81c4.77,0.03,8.78-3.93,8.81-8.7C182.46,98.69,178.5,94.68,173.73,94.65z M226.4,112.16
			c4.77-0.04,8.72-4.05,8.68-8.83c-0.04-4.77-4.05-8.72-8.82-8.68c-4.77,0.04-8.72,4.05-8.68,8.83
			C217.61,108.25,221.63,112.2,226.4,112.16z M138.61,120.98c-4.77-0.02-8.77,3.95-8.79,8.72c-0.02,4.77,3.95,8.77,8.72,8.79
			c4.77,0.02,8.77-3.95,8.79-8.72C147.35,125,143.38,121,138.61,120.98z M208.75,129.81c0.04-4.77-3.9-8.79-8.68-8.83
			c-4.77-0.04-8.78,3.91-8.83,8.68c-0.04,4.77,3.9,8.79,8.68,8.83C204.7,138.53,208.71,134.58,208.75,129.81z M270.18,129.66
			c-0.04-4.77-4.05-8.72-8.82-8.68c-4.77,0.04-8.72,4.05-8.68,8.83c0.04,4.77,4.05,8.72,8.82,8.68
			C266.27,138.45,270.22,134.43,270.18,129.66z"/>
		<path d="M336.7,168.71H62.86l0.94-4.81c0.49-2.51,0.92-5,1.34-7.47c0.92-5.36,1.87-10.9,3.44-16.23
			c10.34-35.06,34.07-59.96,70.53-74.02c24.08-9.28,50.25-12.43,80.01-9.62c20.39,1.93,38.16,6.86,54.3,15.1
			c32.09,16.37,52.18,41.76,59.71,75.45c0.85,3.82,1.4,7.57,1.98,11.54c0.26,1.77,0.52,3.57,0.82,5.39L336.7,168.71z M72.59,160.66
			h254.68c-0.04-0.28-0.08-0.56-0.12-0.83c-0.56-3.82-1.09-7.42-1.88-10.95c-6.98-31.24-25.65-54.81-55.5-70.03
			c-15.22-7.77-32.03-12.43-51.4-14.26c-28.5-2.69-53.47,0.29-76.36,9.11c-34,13.11-56.11,36.25-65.7,68.78
			c-1.44,4.88-2.31,9.95-3.23,15.32C72.92,158.75,72.76,159.7,72.59,160.66z M200,142.51c-0.04,0-0.07,0-0.11,0
			c-3.38-0.03-6.57-1.39-8.98-3.84c-2.41-2.45-3.72-5.66-3.69-9.05c0.03-3.38,1.39-6.57,3.84-8.98c2.42-2.38,5.59-3.69,8.93-3.69
			c0.04,0,0.07,0,0.11,0c7.05,0.06,12.73,5.85,12.67,12.89v0C212.72,136.85,206.99,142.51,200,142.51z M200,125.01
			c-1.21,0-2.38,0.49-3.28,1.38c-0.91,0.9-1.43,2.08-1.44,3.31c-0.01,1.23,0.48,2.41,1.38,3.33c0.9,0.91,2.07,1.43,3.31,1.44
			c0.01,0,0.03,0,0.04,0c2.54,0,4.7-2.14,4.72-4.69c0.02-2.56-2.12-4.74-4.69-4.76C200.02,125.01,200.01,125.01,200,125.01z
			 M261.42,142.51c-3.34,0-6.51-1.31-8.93-3.69c-2.45-2.41-3.81-5.6-3.84-8.98c-0.03-3.39,1.28-6.6,3.69-9.05
			c2.41-2.45,5.6-3.81,8.98-3.84c3.34-0.06,6.6,1.28,9.05,3.69c2.45,2.41,3.81,5.6,3.84,8.98v0c0.06,7.05-5.63,12.83-12.67,12.89
			C261.49,142.51,261.46,142.51,261.42,142.51z M261.43,125.01c-0.01,0-0.03,0-0.04,0c-1.23,0.01-2.41,0.52-3.31,1.44
			c-0.9,0.91-1.39,2.09-1.38,3.33c0.01,1.24,0.52,2.41,1.44,3.31c0.9,0.89,2.07,1.38,3.28,1.38c0.01,0,0.03,0,0.04,0
			c2.56-0.02,4.71-2.2,4.69-4.76l0,0c-0.01-1.23-0.52-2.41-1.44-3.31C263.81,125.49,262.64,125.01,261.43,125.01z M138.58,142.51
			c-0.02,0-0.03,0-0.05,0c-3.39-0.01-6.58-1.37-9-3.8c-2.42-2.44-3.74-5.65-3.73-9.03c0.03-7.03,5.76-12.73,12.78-12.73
			c0.02,0,0.04,0,0.05,0c7.05,0.03,12.76,5.79,12.73,12.83c-0.01,3.39-1.37,6.58-3.8,9C145.13,141.19,141.94,142.51,138.58,142.51z
			 M138.58,125.01c-2.55,0-4.71,2.15-4.72,4.71c-0.01,1.23,0.49,2.41,1.39,3.32c0.9,0.91,2.08,1.41,3.31,1.42c0.01,0,0.01,0,0.02,0
			c1.22,0,2.4-0.49,3.3-1.39c0.91-0.9,1.41-2.08,1.42-3.31c0.01-2.56-2.14-4.73-4.7-4.74C138.59,125.01,138.58,125.01,138.58,125.01
			z M226.32,116.19c-3.34,0-6.51-1.31-8.93-3.69c-2.45-2.41-3.81-5.6-3.84-8.98c-0.03-3.39,1.28-6.6,3.69-9.05
			c2.41-2.45,5.6-3.81,8.98-3.84c3.23-0.06,6.59,1.28,9.05,3.69c2.45,2.41,3.81,5.6,3.84,8.98c0.06,7.05-5.63,12.83-12.67,12.89l0,0
			C226.39,116.19,226.36,116.19,226.32,116.19z M226.33,98.68c-0.01,0-0.03,0-0.04,0c-1.23,0.01-2.41,0.52-3.31,1.44
			c-0.9,0.91-1.39,2.09-1.38,3.33c0.01,1.24,0.52,2.41,1.44,3.31c0.9,0.89,2.07,1.38,3.28,1.38c0.01,0,0.03,0,0.04,0l0,0
			c2.56-0.02,4.71-2.2,4.69-4.76c-0.01-1.23-0.52-2.41-1.44-3.31C228.71,99.17,227.54,98.68,226.33,98.68z M173.68,116.19
			c-0.03,0-0.05,0-0.08,0c-7.05-0.05-12.75-5.82-12.7-12.86c0.02-3.38,1.38-6.58,3.82-8.99c2.44-2.42,5.61-3.75,9.04-3.71
			c3.38,0.02,6.58,1.38,8.99,3.82c2.42,2.44,3.73,5.65,3.71,9.04c-0.02,3.39-1.38,6.58-3.82,8.99
			C180.21,114.87,177.03,116.19,173.68,116.19z M173.67,98.68c-1.22,0-2.39,0.49-3.3,1.39c-0.91,0.9-1.42,2.08-1.43,3.31
			c-0.02,2.56,2.14,4.74,4.7,4.75c1.04,0.07,2.41-0.48,3.32-1.39c0.91-0.9,1.42-2.08,1.43-3.31c0.01-1.23-0.48-2.41-1.39-3.32
			c-0.9-0.91-2.08-1.42-3.31-1.43C173.69,98.68,173.68,98.68,173.67,98.68z"/>
	</g>
	<g>
		<path class="st0" d="M117.36,182.49c19.81,0,40.21,0,60.1,0c-9.99,9.99-20.19,20.19-30.05,30.05
			C137.68,202.81,127.41,192.55,117.36,182.49z"/>
		<path d="M147.41,218.24l-39.77-39.77h79.55L147.41,218.24z M127.08,186.52l20.33,20.33l20.33-20.33H127.08z"/>
	</g>
	<g>
		<path class="st0" d="M283.14,182.62c-10.2,10.2-20.43,20.42-30.45,30.44c-10.04-10.05-20.26-20.28-30.41-30.44
			C242.35,182.62,262.79,182.62,283.14,182.62z"/>
		<path d="M252.69,218.75l-40.13-40.16h80.31L252.69,218.75z M232,186.65l20.69,20.72l20.72-20.72H232z"/>
	</g>
	<g>
		<path class="st0" d="M169.61,217.28c10.17-10.18,20.39-20.41,30.44-30.47c10.01,10.03,20.23,20.27,30.42,30.47
			C210.28,217.28,189.84,217.28,169.61,217.28z"/>
		<path d="M240.18,221.31h-80.29l40.16-40.2L240.18,221.31z M179.33,213.25h41.43l-20.71-20.75L179.33,213.25z"/>
	</g>
	<g>
		<path class="st0" d="M68.77,287.85c87.7,0,174.99,0,262.47,0c-1.54,12.58-6.42,23.37-15.42,32.13
			c-11.35,11.04-25.47,16.4-40.79,18.5c-9.42,1.29-19.01,1.74-28.53,1.8c-32.74,0.21-65.49,0.09-98.23,0.07
			c-15.1-0.01-29.95-1.63-44.05-7.49c-18.83-7.82-31.16-21.19-34.98-41.65C69.05,290.16,68.94,289.1,68.77,287.85z"/>
		<path d="M201.47,344.43c-10.31,0-20.56-0.02-30.68-0.03l-22.53-0.02c-18.33-0.01-32.81-2.49-45.59-7.8
			c-20.91-8.69-33.49-23.71-37.39-44.63c-0.15-0.78-0.25-1.57-0.36-2.42l-0.78-5.7l271.65,0l-0.55,4.52
			c-1.7,13.84-7.29,25.46-16.61,34.52c-11.04,10.74-25.12,17.15-43.05,19.6c-8.56,1.17-18.06,1.77-29.05,1.84
			C231.56,344.4,216.46,344.43,201.47,344.43z M73.48,291.88c3.7,17.58,14.27,29.77,32.28,37.26c11.77,4.89,25.27,7.18,42.5,7.18
			l22.53,0.02c24.8,0.03,50.45,0.07,75.67-0.1c10.64-0.07,19.8-0.64,28.01-1.77c16.16-2.21,28.76-7.9,38.52-17.39
			c7.06-6.86,11.5-15.14,13.51-25.21L73.48,291.88z"/>
	</g>
</g>
</svg>
